/* XPM */
static char * btn_bg2_xpm[] = {
"8 60 31 1",
" 	c None",
".	c #111111",
"+	c #131313",
"@	c #161616",
"#	c #171717",
"$	c #191919",
"%	c #1C1C1C",
"&	c #1E1E1E",
"*	c #202020",
"=	c #232323",
"-	c #252525",
";	c #272727",
">	c #292929",
",	c #2B2B2B",
"'	c #2E2E2E",
")	c #303030",
"!	c #323232",
"~	c #353535",
"{	c #373737",
"]	c #383838",
"^	c #3B3B3B",
"/	c #3D3D3D",
"(	c #404040",
"_	c #424242",
":	c #444444",
"<	c #474747",
"[	c #484848",
"}	c #4A4A4A",
"|	c #4D4D4D",
"1	c #4F4F4F",
"2	c #525252",
"........",
"++++++++",
"@@@@@@@@",
"########",
"$$$$$$$$",
"%%%%%%%%",
"&&&&&&&&",
"********",
"========",
"--------",
";;;;;;;;",
">>>>>>>>",
",,,,,,,,",
"''''''''",
"))))))))",
"!!!!!!!!",
"~~~~~~~~",
"{{{{{{{{",
"]]]]]]]]",
"^^^^^^^^",
"////////",
"((((((((",
"________",
"::::::::",
"<<<<<<<<",
"[[[[[[[[",
"}}}}}}}}",
"||||||||",
"11111111",
"22222222",
"22222222",
"11111111",
"||||||||",
"}}}}}}}}",
"[[[[[[[[",
"<<<<<<<<",
"::::::::",
"________",
"((((((((",
"////////",
"^^^^^^^^",
"]]]]]]]]",
"{{{{{{{{",
"~~~~~~~~",
"!!!!!!!!",
"))))))))",
"''''''''",
",,,,,,,,",
">>>>>>>>",
";;;;;;;;",
"--------",
"========",
"********",
"&&&&&&&&",
"%%%%%%%%",
"$$$$$$$$",
"########",
"@@@@@@@@",
"++++++++",
"........"};
