/* XPM */
static char *btn_bg2[] = {
/* columns rows colors chars-per-pixel */
"1 30 15 1",
"  c #323232",
". c #353535",
"X c #373737",
"o c gray22",
"O c gray23",
"+ c gray24",
"@ c gray25",
"# c gray26",
"$ c #444444",
"% c gray28",
"& c #484848",
"* c gray29",
"= c gray30",
"- c gray31",
"; c gray32",
/* pixels */
" ",
".",
".",
"o",
"+",
"+",
"@",
"@",
"$",
"&",
"&",
"&",
"-",
"-",
";",
";",
"-",
"-",
"&",
"&",
"$",
"$",
"$",
"@",
"+",
"+",
"o",
".",
".",
" "
};
