/* XPM */
static char *btn_bg1[] = {
/* columns rows colors chars-per-pixel */
"1 30 15 1",
"  c #252525",
". c #282828",
"X c #2A2A2A",
"o c #2C2C2C",
"O c #2F2F2F",
"+ c #313131",
"@ c #343434",
"# c gray21",
"$ c gray22",
"% c gray23",
"& c gray24",
"* c #3F3F3F",
"= c gray26",
"- c #444444",
"; c gray28",
/* pixels */
" ",
".",
".",
"o",
"+",
"+",
"@",
"@",
"$",
"&",
"&",
"&",
"=",
"-",
";",
";",
"-",
"=",
"=",
"&",
"$",
"$",
"@",
"@",
"+",
"+",
"o",
".",
".",
" "
};
