/* XPM */
static char *btn_bg3[] = {
/* columns rows colors chars-per-pixel */
"1 30 15 1",
"  c #3E3E3E",
". c #414141",
"X c #434343",
"o c #444444",
"O c gray28",
"+ c #484848",
"@ c #4B4B4B",
"# c gray30",
"$ c gray31",
"% c gray32",
"& c #535353",
"* c #555555",
"= c gray34",
"- c gray35",
"; c gray36",
/* pixels */
" ",
".",
".",
"o",
"+",
"+",
"+",
"$",
"%",
"%",
"%",
"*",
"*",
"-",
";",
";",
"-",
"-",
"*",
"%",
"%",
"$",
"$",
"+",
"+",
"+",
"o",
".",
".",
" "
};
