/* XPM */
static char * next_xpm[] = {
"20 20 4 1",
" 	c None",
".	c #333333",
"+	c #191919",
"@	c #000000",
"                    ",
"  ..             .+ ",
"  +@+.           +@ ",
"  +@@@+.         +@ ",
"  +@@@@@+.       +@ ",
"  +@@@@@@@+.     +@ ",
"  +@@@@@@@@@+.   +@ ",
"  +@@@@@@@@@@@+. +@ ",
"  +@@@@@@@@@@@@@++@ ",
"  +@@@@@@@@@@@@@@@@ ",
"  +@@@@@@@@@@@@@@@@ ",
"  +@@@@@@@@@@@@@++@ ",
"  +@@@@@@@@@@@+. +@ ",
"  +@@@@@@@@@+.   +@ ",
"  +@@@@@@@+.     +@ ",
"  +@@@@@+.       +@ ",
"  +@@@+.         +@ ",
"  +@+.           +@ ",
"  ..             .+ ",
"                    "};
