/* XPM */
static char * pause_xpm[] = {
"20 20 3 1",
" 	c None",
".	c #191919",
"+	c #000000",
"                    ",
"                    ",
"  .......  .......  ",
"  .++++++  ++++++.  ",
"  .++++++  ++++++.  ",
"  .++++++  ++++++.  ",
"  .++++++  ++++++.  ",
"  .++++++  ++++++.  ",
"  .++++++  ++++++.  ",
"  .++++++  ++++++.  ",
"  .++++++  ++++++.  ",
"  .++++++  ++++++.  ",
"  .++++++  ++++++.  ",
"  .++++++  ++++++.  ",
"  .++++++  ++++++.  ",
"  .++++++  ++++++.  ",
"  .++++++  ++++++.  ",
"  .......  .......  ",
"                    ",
"                    "};
