/* XPM */
static char * prev_xpm[] = {
"20 20 4 1",
" 	c None",
".	c #191919",
"+	c #333333",
"@	c #000000",
"                    ",
" .+             ++  ",
" @.           +.@.  ",
" @.         +.@@@.  ",
" @.       +.@@@@@.  ",
" @.     +.@@@@@@@.  ",
" @.   +.@@@@@@@@@.  ",
" @. +.@@@@@@@@@@@.  ",
" @..@@@@@@@@@@@@@.  ",
" @@@@@@@@@@@@@@@@.  ",
" @@@@@@@@@@@@@@@@.  ",
" @..@@@@@@@@@@@@@.  ",
" @. +.@@@@@@@@@@@.  ",
" @.   +.@@@@@@@@@.  ",
" @.     +.@@@@@@@.  ",
" @.       +.@@@@@.  ",
" @.         +.@@@.  ",
" @.           +.@.  ",
" .+             ++  ",
"                    "};
