/* XPM */
static char * shuffle_xpm[] = {
"19 19 7 1",
" 	c None",
".	c #000000",
"+	c #0C0C0C",
"@	c #191919",
"#	c #262626",
"$	c #353535",
"%	c #3F3F3F",
"                   ",
" ....+@     @+.... ",
" ..##         ##.. ",
" .#.           .#. ",
" .# .         . #. ",
" +               + ",
" @    .$   %.    @ ",
"      ..@$ %.      ",
"      ....@%.      ",
"      .......      ",
"      ....@%.      ",
"      ..@$ %.      ",
" @    .$   %.    @ ",
" +               + ",
" .# .         . #. ",
" .#.           .#. ",
" ..##         ##.. ",
" ....+@     @+.... ",
"                   "};
