/* XPM */
static char * hscale_bg_active_xpm[] = {
"1 15 9 1",
" 	c None",
".	c #38485A",
"+	c #324252",
"@	c #2C3B4B",
"#	c #273544",
"$	c #212F3D",
"%	c #1C2937",
"&	c #182431",
"*	c #141E2B",
".",
"+",
"@",
"#",
"$",
"%",
"&",
"*",
"&",
"%",
"$",
"#",
"@",
"+",
"."};
