/* XPM */
static char * bg4_xpm[] = {
"1 58 31 1",
" 	c None",
".	c #778677",
"+	c #7B8A7B",
"@	c #7F8E7F",
"#	c #839283",
"$	c #889788",
"%	c #8C9B8C",
"&	c #909F90",
"*	c #94A394",
"=	c #99A899",
"-	c #9CAD9C",
";	c #A1B0A1",
">	c #A5B4A5",
",	c #AAB9AA",
"'	c #AEBDAE",
")	c #B2C1B2",
"!	c #B7C6B7",
"~	c #BBCABB",
"{	c #BFCEBF",
"]	c #C3D2C3",
"^	c #C8D7C8",
"/	c #CCDBCC",
"(	c #D0DFD0",
"_	c #D4E3D4",
":	c #D9E8D9",
"<	c #DDECDD",
"[	c #E1F0E1",
"}	c #E5F4E5",
"|	c #E9FAE9",
"1	c #F5FEF5",
"2	c #EDFEED",
".",
"+",
"@",
"#",
"$",
"%",
"&",
"*",
"=",
"-",
";",
">",
",",
"'",
")",
"!",
"~",
"{",
"]",
"^",
"/",
"(",
"_",
":",
"<",
"[",
"}",
"|",
"1",
"2",
"|",
"}",
"[",
"<",
":",
"_",
"(",
"/",
"^",
"]",
"{",
"~",
"!",
")",
"'",
",",
">",
";",
"-",
"=",
"*",
"&",
"%",
"$",
"#",
"@",
"+",
"."};
