/* XPM */
static char * bg6_xpm[] = {
"1 384 130 2",
"  	c None",
". 	c #FFFFFF",
"+ 	c #FDFDFE",
"@ 	c #FBFBFE",
"# 	c #F9F9FE",
"$ 	c #F7F7FE",
"% 	c #F5F5FE",
"& 	c #F5F5FC",
"* 	c #F4F4FB",
"= 	c #F3F3FA",
"- 	c #F2F2F9",
"; 	c #F1F1F8",
"> 	c #F0F0F7",
", 	c #F0F0F5",
"' 	c #EFEFF4",
") 	c #EEEEF3",
"! 	c #EDEDF2",
"~ 	c #ECECF1",
"{ 	c #EBEBF0",
"] 	c #EAEAEF",
"^ 	c #E9E9EE",
"/ 	c #E8E8ED",
"( 	c #E7E7EC",
"_ 	c #E5E5EC",
": 	c #E4E4EB",
"< 	c #E3E3EA",
"[ 	c #E2E2E9",
"} 	c #E1E1E8",
"| 	c #E0E0E7",
"1 	c #DFDFE6",
"2 	c #DEDEE5",
"3 	c #DDDDE4",
"4 	c #DCDCE3",
"5 	c #DBDBE2",
"6 	c #DADAE1",
"7 	c #D9D9E0",
"8 	c #D8D8DF",
"9 	c #D7D7DE",
"0 	c #D6D6DD",
"a 	c #D5D5DC",
"b 	c #D4D4DB",
"c 	c #D3D3DA",
"d 	c #D2D2D9",
"e 	c #D1D1D8",
"f 	c #D0D0D7",
"g 	c #CFCFD6",
"h 	c #CECED5",
"i 	c #CDCDD4",
"j 	c #CCCCD3",
"k 	c #CACAD3",
"l 	c #C9C9D2",
"m 	c #C8C8D1",
"n 	c #C7C7D0",
"o 	c #C6C6CF",
"p 	c #C5C5CE",
"q 	c #C4C4CD",
"r 	c #C3C3CC",
"s 	c #C2C2CB",
"t 	c #C1C1CA",
"u 	c #C0C0C9",
"v 	c #BFBFC8",
"w 	c #BEBEC7",
"x 	c #BDBDC6",
"y 	c #BCBCC5",
"z 	c #BBBBC4",
"A 	c #BABAC3",
"B 	c #B9B9C2",
"C 	c #B8B8C1",
"D 	c #B7B7C0",
"E 	c #B7B7BF",
"F 	c #B5B5BE",
"G 	c #B4B4BD",
"H 	c #B3B3BC",
"I 	c #B3B3BA",
"J 	c #B1B1BA",
"K 	c #B0B0B9",
"L 	c #AFAFB8",
"M 	c #AEAEB7",
"N 	c #AEAEB5",
"O 	c #ADADB4",
"P 	c #ABABB4",
"Q 	c #AAAAB3",
"R 	c #A9A9B2",
"S 	c #A9A9B0",
"T 	c #A8A8AF",
"U 	c #A7A7AE",
"V 	c #A6A6AE",
"W 	c #A4A4AD",
"X 	c #A3A3AC",
"Y 	c #A2A2AB",
"Z 	c #A1A1AA",
"` 	c #A0A0A9",
" .	c #9F9FA8",
"..	c #9D9DA8",
"+.	c #9C9CA7",
"@.	c #9B9BA6",
"#.	c #9A9AA5",
"$.	c #9A9AA3",
"%.	c #9999A2",
"&.	c #9898A1",
"*.	c #9696A1",
"=.	c #9595A0",
"-.	c #94949F",
";.	c #93939E",
">.	c #93939C",
",.	c #92929B",
"'.	c #91919A",
").	c #909099",
"!.	c #8E8E99",
"~.	c #8D8D98",
"{.	c #8C8C97",
"].	c #8B8B96",
"^.	c #8B8B94",
"/.	c #8A8A93",
"(.	c #898992",
"_.	c #888891",
":.	c #878790",
"<.	c #858590",
"[.	c #84848F",
"}.	c #83838E",
"|.	c #82828D",
"1.	c #81818C",
"2.	c #81818A",
"3.	c #808089",
"4.	c #7F7F88",
"5.	c #7E7E87",
"6.	c #7D7D86",
"7.	c #7C7C85",
"8.	c #7B7B84",
"9.	c #7A7A83",
". ",
"+ ",
"@ ",
"# ",
"# ",
"$ ",
"% ",
"% ",
"& ",
"* ",
"* ",
"= ",
"- ",
"- ",
"; ",
"> ",
"> ",
", ",
"' ",
"' ",
") ",
"! ",
"! ",
"~ ",
"{ ",
"{ ",
"] ",
"^ ",
"^ ",
"/ ",
"( ",
"( ",
"_ ",
": ",
": ",
"< ",
"[ ",
"[ ",
"} ",
"| ",
"| ",
"1 ",
"2 ",
"2 ",
"3 ",
"4 ",
"4 ",
"5 ",
"6 ",
"6 ",
"7 ",
"8 ",
"8 ",
"9 ",
"0 ",
"0 ",
"a ",
"b ",
"b ",
"c ",
"d ",
"d ",
"e ",
"f ",
"f ",
"g ",
"h ",
"h ",
"i ",
"j ",
"j ",
"k ",
"l ",
"l ",
"m ",
"n ",
"n ",
"o ",
"p ",
"p ",
"q ",
"r ",
"r ",
"s ",
"t ",
"t ",
"u ",
"v ",
"v ",
"w ",
"x ",
"x ",
"y ",
"z ",
"z ",
"A ",
"B ",
"B ",
"C ",
"D ",
"E ",
"E ",
"F ",
"G ",
"G ",
"H ",
"I ",
"I ",
"J ",
"K ",
"K ",
"L ",
"M ",
"M ",
"N ",
"O ",
"O ",
"P ",
"Q ",
"Q ",
"R ",
"S ",
"S ",
"T ",
"U ",
"U ",
"V ",
"W ",
"W ",
"X ",
"Y ",
"Y ",
"Z ",
"` ",
"` ",
" .",
"..",
"..",
"+.",
"@.",
"@.",
"#.",
"$.",
"$.",
"%.",
"&.",
"&.",
"*.",
"=.",
"=.",
"-.",
";.",
";.",
">.",
",.",
",.",
"'.",
").",
").",
"!.",
"~.",
"~.",
"{.",
"].",
"].",
"^.",
"/.",
"/.",
"(.",
"_.",
"_.",
":.",
"<.",
"<.",
"[.",
"}.",
"}.",
"|.",
"1.",
"1.",
"2.",
"3.",
"3.",
"4.",
"5.",
"5.",
"6.",
"7.",
"7.",
"8.",
"9.",
"9.",
"9.",
"9.",
"8.",
"7.",
"7.",
"6.",
"5.",
"5.",
"4.",
"3.",
"3.",
"2.",
"1.",
"1.",
"|.",
"}.",
"}.",
"[.",
"<.",
"<.",
":.",
"_.",
"_.",
"(.",
"/.",
"/.",
"^.",
"].",
"].",
"{.",
"~.",
"~.",
"!.",
").",
").",
"'.",
",.",
",.",
">.",
";.",
";.",
"-.",
"=.",
"=.",
"*.",
"&.",
"&.",
"%.",
"$.",
"$.",
"#.",
"@.",
"@.",
"+.",
"..",
"..",
" .",
"` ",
"` ",
"Z ",
"Y ",
"Y ",
"X ",
"W ",
"W ",
"V ",
"U ",
"U ",
"T ",
"S ",
"S ",
"R ",
"Q ",
"Q ",
"P ",
"O ",
"O ",
"N ",
"M ",
"M ",
"L ",
"K ",
"K ",
"J ",
"I ",
"I ",
"H ",
"G ",
"G ",
"F ",
"E ",
"E ",
"D ",
"C ",
"B ",
"B ",
"A ",
"z ",
"z ",
"y ",
"x ",
"x ",
"w ",
"v ",
"v ",
"u ",
"t ",
"t ",
"s ",
"r ",
"r ",
"q ",
"p ",
"p ",
"o ",
"n ",
"n ",
"m ",
"l ",
"l ",
"k ",
"j ",
"j ",
"i ",
"h ",
"h ",
"g ",
"f ",
"f ",
"e ",
"d ",
"d ",
"c ",
"b ",
"b ",
"a ",
"0 ",
"0 ",
"9 ",
"8 ",
"8 ",
"7 ",
"6 ",
"6 ",
"5 ",
"4 ",
"4 ",
"3 ",
"2 ",
"2 ",
"1 ",
"| ",
"| ",
"} ",
"[ ",
"[ ",
"< ",
": ",
": ",
"_ ",
"( ",
"( ",
"/ ",
"^ ",
"^ ",
"] ",
"{ ",
"{ ",
"~ ",
"! ",
"! ",
") ",
"' ",
"' ",
", ",
"> ",
"> ",
"; ",
"- ",
"- ",
"= ",
"* ",
"* ",
"& ",
"% ",
"% ",
"$ ",
"# ",
"# ",
"@ ",
"+ ",
". "};
