/* XPM */
static char * bg7_xpm[] = {
"1 58 30 1",
" 	c None",
".	c #8A8A95",
"+	c #8D8D9A",
"@	c #90909D",
"#	c #9494A1",
"$	c #9898A5",
"%	c #9C9CA9",
"&	c #9F9FAC",
"*	c #A3A3B0",
"=	c #A7A7B4",
"-	c #ABABB7",
";	c #AEAEBA",
">	c #B2B2BD",
",	c #B6B6C1",
"'	c #B9B9C5",
")	c #BDBDC8",
"!	c #C1C1CD",
"~	c #C4C4D1",
"{	c #C8C8D5",
"]	c #CDCDD7",
"^	c #D0D0DC",
"/	c #D4D4DF",
"(	c #D7D7E3",
"_	c #DBDBE6",
":	c #E0E0E9",
"<	c #E4E4EC",
"[	c #E6E6F0",
"}	c #EAEAF4",
"|	c #EFEFF7",
"1	c #F2F2FB",
".",
"+",
"@",
"#",
"$",
"%",
"&",
"*",
"=",
"-",
";",
">",
",",
"'",
")",
"!",
"~",
"{",
"]",
"^",
"/",
"(",
"_",
":",
"<",
"[",
"}",
"|",
"1",
"1",
"|",
"}",
"[",
"<",
":",
"_",
"(",
"/",
"^",
"]",
"{",
"~",
"!",
")",
"'",
",",
">",
";",
"-",
"=",
"*",
"&",
"%",
"$",
"#",
"@",
"+",
"."};
