/* XPM */
static char * bg9_xpm[] = {
"1 64 13 1",
" 	c None",
".	c #ECECEC",
"+	c #EBEBEB",
"@	c #EAEAEA",
"#	c #E9E9E9",
"$	c #E8E8E8",
"%	c #E7E7E7",
"&	c #E6E6E6",
"*	c #E5E5E5",
"=	c #E4E4E4",
"-	c #E3E3E3",
";	c #E2E2E2",
">	c #E1E1E1",
".",
"+",
"@",
"@",
"@",
"@",
"@",
"#",
"$",
"$",
"$",
"$",
"$",
"%",
"&",
"&",
"&",
"&",
"&",
"*",
"=",
"=",
"=",
"=",
"=",
"-",
";",
";",
";",
";",
";",
">",
">",
";",
";",
";",
";",
";",
"-",
"=",
"=",
"=",
"=",
"=",
"*",
"&",
"&",
"&",
"&",
"&",
"%",
"$",
"$",
"$",
"$",
"$",
"#",
"@",
"@",
"@",
"@",
"@",
"+",
"."};
