/* XPM */
static char * repeat_all_xpm[] = {
"20 9 2 1",
" 	c None",
".	c #000000",
"                    ",
"    ............    ",
"   .            .   ",
"  ...        .......",
" .....        ..... ",
".......        ...  ",
"   .            .   ",
"    ............    ",
"                    "};
