/* XPM */
static char * scale_bg_xpm[] = {
"2 32 12 1",
" 	c None",
".	c #939393",
"+	c #9A9A9A",
"@	c #A1A1A1",
"#	c #A8A8A8",
"$	c #AEAEAE",
"%	c #B4B4B4",
"&	c #BBBBBB",
"*	c #C2C2C2",
"=	c #C9C9C9",
"-	c #D0D0D0",
";	c #D1D1D1",
"..",
"++",
"@@",
"##",
"$$",
"%%",
"&&",
"**",
"==",
"--",
";;",
";;",
";;",
";;",
";;",
";;",
";;",
";;",
";;",
";;",
";;",
";;",
"--",
"==",
"**",
"&&",
"%%",
"$$",
"##",
"@@",
"++",
".."};
