/* XPM */
static char * drag_xpm[] = {
"37 37 31 1",
" 	c None",
".	c #000000",
"+	c #1D4175",
"@	c #1E4378",
"#	c #1F467B",
"$	c #21487E",
"%	c #224B81",
"&	c #234D84",
"*	c #245087",
"=	c #25528A",
"-	c #27558D",
";	c #285790",
">	c #295A93",
",	c #2A5D96",
"'	c #2B5F99",
")	c #2D629C",
"!	c #2C66A0",
"~	c #2B6BA3",
"{	c #2971A6",
"]	c #2777AA",
"^	c #257DAD",
"/	c #2382B1",
"(	c #2288B4",
"_	c #208EB8",
":	c #1E94BB",
"<	c #1C99BF",
"[	c #1B9FC2",
"}	c #19A5C6",
"|	c #17ABC9",
"1	c #15B1CD",
"2	c #13B7D1",
"                                     ",
"                                     ",
"                                     ",
"                                     ",
"                                     ",
"                                     ",
"                               ......",
"                           .....++++.",
"                       .....@@@@@@@@.",
"                   .....##########.#.",
"                ....$$$$$$$$$$.....$.",
"                .%%%%%%%%%.....   .%.",
"                .&&&&&.....       .&.",
"                .*.....           .*.",
"                .=.               .=.",
"                .-.               .-.",
"                .;.               .;.",
"                .>.               .>.",
"                .,.               .,.",
"                .'.               .'.",
"                .).               .).",
"                .!.               .!.",
"                .~.               .~.",
"                .{.          ......{.",
"                .].        ...]]]].].",
"                .^.       ..^^^^^^^^.",
"                ./.      ../////////.",
"                .(.      .(((((((((..",
"           ......_.      ._________. ",
"         ...::::.:.      .::::::::.. ",
"        ..<<<<<<<<.      ..<<<<<...  ",
"       ..[[[[[[[[[.       .......    ",
"       .}}}}}}}}}..                  ",
"       .|||||||||.                   ",
"       .11111111..                   ",
"       ..22222...                    ",
"        .......                      "};
