/* XPM */
static char * icon_16_xpm[] = {
"16 16 83 1",
" 	c None",
".	c #153B8A",
"+	c #183E92",
"@	c #1F47AC",
"#	c #194098",
"$	c #183E93",
"%	c #2A52CB",
"&	c #1B429C",
"*	c #143A87",
"=	c #173E91",
"-	c #2750C4",
";	c #3159DE",
">	c #2349AF",
",	c #194096",
"'	c #325CE6",
")	c #355EEC",
"!	c #294DBE",
"~	c #173D8E",
"{	c #2951C7",
"]	c #3660F0",
"^	c #2C4FC3",
"/	c #2145A5",
"(	c #153B8B",
"_	c #2951C8",
":	c #355FEE",
"<	c #3862F7",
"[	c #3761F3",
"}	c #335AE0",
"|	c #2A4DBD",
"1	c #1B429D",
"2	c #2F58DB",
"3	c #3862F6",
"4	c #355DE8",
"5	c #2C4FC1",
"6	c #2649B1",
"7	c #183D8F",
"8	c #355FEF",
"9	c #365FEF",
"0	c #2F54D1",
"a	c #2B4EBE",
"b	c #2A4CB9",
"c	c #1F3D93",
"d	c #102456",
"e	c #2D56D5",
"f	c #3761F4",
"g	c #2D51C7",
"h	c #2B4DBC",
"i	c #223D95",
"j	c #112355",
"k	c #274BB6",
"l	c #2F53CD",
"m	c #345BE4",
"n	c #365EED",
"o	c #2D50C5",
"p	c #112559",
"q	c #22429F",
"r	c #2A4BB7",
"s	c #2D50C6",
"t	c #2E51C8",
"u	c #1F398C",
"v	c #11285F",
"w	c #122253",
"x	c #223C93",
"y	c #2A4BB8",
"z	c #2B4CBA",
"A	c #223E98",
"B	c #142C69",
"C	c #13357B",
"D	c #122151",
"E	c #20398B",
"F	c #2542A1",
"G	c #213D94",
"H	c #122861",
"I	c #13357D",
"J	c #143A86",
"K	c #111F4C",
"L	c #12265B",
"M	c #12275E",
"N	c #122962",
"O	c #13357C",
"P	c #143985",
"Q	c #13367D",
"R	c #13367F",
"       .        ",
"      +@#       ",
"      $%&*      ",
"     =-;>.      ",
"     ,')!~      ",
"     {])^/(     ",
"    _:<[}|/     ",
"   12<<34567    ",
"   _8<<90abcd   ",
"  *ef3<)ghhij*  ",
"  *klmnmohhip*  ",
"  *qrstsahruv*  ",
"   wxyhhhzABC*  ",
"    DEFFFGHIJ   ",
"     KLMMNOP    ",
"      CQQRJ     "};
